<?xml version="1.0" standalone="no"?>
<!DOCTYPE svg PUBLIC "-//W3C//DTD SVG 20010904//EN"
 "http://www.w3.org/TR/2001/REC-SVG-20010904/DTD/svg10.dtd">
<svg version="1.0" xmlns="http://www.w3.org/2000/svg"
 width="442.000000pt" height="442.000000pt" viewBox="0 0 442.000000 442.000000"
 preserveAspectRatio="xMidYMid meet">
<metadata>
Created by potrace 1.14, written by Peter Selinger 2001-2017
</metadata>
<g transform="translate(0.000000,442.000000) scale(0.100000,-0.100000)"
fill="#000000" stroke="none">
<path d="M2228 4176 c-25 -30 -62 -82 -84 -115 -21 -33 -41 -61 -44 -61 -7 0
-34 119 -32 143 0 9 -6 17 -14 17 -17 0 -18 -25 -2 -102 7 -31 9 -60 6 -63 -3
-3 -28 0 -57 7 -87 20 -237 -20 -376 -99 -231 -133 -425 -305 -511 -453 -105
-180 -163 -345 -214 -604 -15 -74 -12 -238 6 -361 34 -234 103 -459 140 -461
37 -2 41 -4 52 -36 15 -45 75 -190 85 -206 6 -9 17 -5 43 15 l35 26 24 -24
c16 -15 32 -53 45 -103 30 -111 118 -290 183 -371 18 -22 46 -59 62 -82 59
-83 193 -157 363 -201 45 -12 108 -22 138 -22 l56 0 -7 -117 c-9 -164 -5 -156
-74 -148 -46 5 -60 3 -70 -9 -8 -9 -26 -16 -41 -16 -49 0 -246 -82 -343 -142
-63 -40 -210 -193 -272 -284 -47 -70 -64 -106 -87 -187 -15 -55 -28 -104 -28
-109 0 -13 20 -9 25 5 2 6 13 46 26 87 41 140 101 233 236 367 82 82 106 99
206 148 102 50 216 95 240 95 5 0 6 -20 2 -48 -5 -35 -2 -60 11 -93 25 -61 79
-150 119 -195 39 -44 32 -46 95 34 27 35 40 40 40 17 0 -8 7 -15 15 -15 8 0
45 -20 82 -45 37 -25 70 -45 74 -45 13 0 57 63 78 111 11 24 29 86 41 136 12
51 26 95 30 98 14 8 209 -12 271 -29 107 -28 225 -101 336 -211 62 -61 73 -78
87 -130 9 -33 29 -100 45 -150 16 -50 32 -102 35 -117 4 -16 13 -28 21 -28 18
0 15 17 -25 141 -16 47 -32 103 -36 125 -11 64 -49 125 -116 190 -156 150
-284 210 -503 233 -62 7 -105 18 -139 36 -27 14 -66 25 -85 25 -62 0 -62 0
-59 185 l3 169 75 51 c157 105 279 216 347 315 60 88 127 242 148 337 8 40 27
46 93 29 29 -7 54 -10 56 -7 2 3 6 26 10 51 11 75 52 148 150 264 103 123 130
177 170 344 34 137 41 262 22 402 -42 314 -86 413 -273 612 -32 35 -69 89 -93
140 -45 93 -110 165 -180 202 -26 13 -62 33 -81 43 -48 27 -109 48 -227 78
-82 22 -128 27 -230 28 -70 1 -147 -2 -171 -7 l-44 -8 7 27 c4 15 26 52 49 82
23 30 49 66 57 78 8 13 25 29 38 34 13 6 20 16 17 21 -13 21 -34 8 -77 -44z
m-338 -960 l25 -24 60 18 c49 16 64 17 85 7 30 -15 55 -82 64 -177 4 -36 11
-84 16 -107 9 -39 66 -147 98 -185 12 -14 10 -17 -20 -23 -47 -10 -99 -39
-127 -69 -38 -40 -18 -41 33 -2 42 32 67 41 131 48 11 1 42 -12 69 -30 27 -17
70 -38 95 -46 51 -15 403 -42 420 -32 15 9 14 26 -1 26 -25 0 -90 55 -109 92
-22 42 -40 231 -21 213 6 -5 32 -57 58 -114 49 -109 108 -196 170 -250 30 -27
35 -37 30 -59 -4 -15 -11 -66 -15 -114 -4 -48 -9 -90 -12 -92 -5 -5 -395 13
-426 20 -14 2 -25 14 -29 29 -3 14 -15 30 -27 36 -31 17 -384 17 -424 0 -18
-7 -33 -17 -33 -22 0 -14 -44 -11 -59 4 -9 9 -68 12 -224 12 -186 0 -216 -2
-240 -18 -21 -13 -38 -16 -79 -11 l-53 6 2 142 1 141 61 31 c34 17 72 41 85
53 18 17 30 21 47 16 l22 -7 -24 -19 c-13 -9 -21 -20 -19 -23 3 -3 39 0 79 6
104 15 173 -1 223 -53 40 -42 64 -35 31 9 -27 38 -103 73 -171 79 -55 5 -59 8
-80 44 -32 55 -34 40 50 309 45 146 158 210 238 136z m485 -864 c54 -9 73 -49
81 -169 14 -186 6 -193 -222 -193 -159 0 -234 12 -234 37 0 16 8 16 40 -2 14
-8 50 -14 81 -15 49 0 60 4 96 35 70 60 87 119 56 196 -13 34 -25 46 -67 65
-65 30 -73 30 -140 -5 l-56 -30 0 24 c0 32 8 36 109 50 98 15 197 17 256 7z
m-434 -32 c10 -6 19 -20 19 -30 0 -24 0 -24 -50 -4 -73 29 -147 2 -193 -71
-30 -47 -35 -97 -13 -148 33 -81 165 -101 235 -36 25 23 35 21 25 -5 -15 -39
-61 -49 -223 -47 -85 0 -159 5 -163 9 -13 13 -47 184 -55 270 l-6 72 202 0
c120 0 210 -4 222 -10z m276 -57 c57 -42 57 -117 0 -179 -77 -84 -217 -53
-217 48 0 76 42 138 105 157 39 11 73 4 112 -26z m-746 3 c4 -12 13 -55 19
-96 15 -107 39 -186 62 -207 18 -16 41 -18 203 -18 162 1 186 3 203 19 17 15
24 16 44 5 28 -15 268 -24 365 -14 55 6 71 12 102 40 l36 33 5 108 5 109 42 7
c51 8 364 -5 382 -17 30 -18 -8 -372 -55 -511 -33 -97 -101 -218 -166 -297
-49 -58 -184 -173 -296 -251 -160 -112 -309 -147 -469 -111 -97 22 -267 103
-310 147 -51 52 -118 139 -141 183 -11 22 -36 66 -56 99 -79 130 -117 280
-116 456 1 289 1 324 6 332 3 5 33 8 66 7 50 -2 61 -6 69 -23z m454 -16 c76
-47 55 -175 -37 -223 -106 -54 -210 54 -154 161 16 30 53 66 76 75 33 12 84 6
115 -13z m1126 -42 c27 -15 44 -35 58 -69 27 -61 26 -69 -4 -128 -31 -63 -86
-99 -119 -81 -22 11 -23 17 -19 83 6 93 4 88 43 101 41 13 42 31 2 31 -25 0
-27 4 -30 43 -4 50 9 54 69 20z m-1753 -68 l0 -80 -29 0 c-19 0 -29 -5 -29
-15 0 -10 10 -15 30 -15 l30 0 0 -75 c0 -75 0 -76 -22 -64 -99 51 -138 124
-109 202 10 26 106 127 121 127 4 0 8 -36 8 -80z m1032 -1235 c-1 -96 1 -178
4 -183 8 -14 -95 -232 -110 -232 -7 0 -22 21 -34 48 -12 26 -26 54 -31 62 -5
8 -19 34 -31 57 -20 40 -21 43 -5 61 12 13 19 50 26 133 5 63 9 121 9 129 -3
40 3 48 37 54 20 4 54 15 78 26 23 10 46 19 50 19 4 1 7 -78 7 -174z m-254
-192 c3 -10 30 -67 60 -126 59 -118 59 -120 5 -171 l-31 -30 -25 24 c-14 14
-44 60 -65 103 -42 83 -49 128 -29 186 9 27 16 31 45 31 24 0 36 -5 40 -17z
m407 -5 c16 -12 15 -22 -16 -144 -20 -73 -46 -148 -60 -172 l-27 -41 -42 24
c-46 26 -88 61 -88 74 0 4 18 46 40 92 22 46 50 105 63 131 21 47 23 48 68 48
25 0 53 -6 62 -12z"/>
<path d="M2092 2178 c-32 -32 2 -79 43 -60 39 18 27 72 -15 72 -9 0 -21 -5
-28 -12z"/>
<path d="M2525 1619 c-105 -107 -385 -279 -453 -279 -39 0 -189 78 -258 134
-30 25 -60 46 -65 46 -17 0 -9 -29 10 -40 11 -5 40 -27 64 -49 25 -21 80 -56
123 -77 103 -51 150 -51 251 -2 132 65 393 262 393 296 0 23 -25 12 -65 -29z"/>
<path d="M1823 2161 c-18 -29 -16 -49 7 -61 17 -9 25 -6 46 15 33 33 28 59
-11 63 -21 2 -34 -3 -42 -17z"/>
</g>
</svg>
